<svg viewBox="0 0 38 24" width="38" height="24" role="img" aria-labelledby="pi-basepay" fill="none" xmlns="http://www.w3.org/2000/svg"><title id="pi-basepay">Base Pay</title><path d="M35 0H3C1.3 0 0 1.3 0 3V21C0 22.7 1.4 24 3 24H35C36.7 24 38 22.7 38 21V3C38 1.3 36.6 0 35 0Z" fill="#000" fill-opacity=".07"/><path d="M35 1C36.1 1 37 1.9 37 3V21C37 22.1 36.1 23 35 23H3C1.9 23 1 22.1 1 21V3C1 1.9 1.9 1 3 1H35Z" fill="white"/><rect x="8" y="1" width="21" height="22" rx="4" fill="white"/><rect x="12.3984" y="5.40039" width="13.2" height="13.2" fill="#0052FF"/></svg>
