<svg viewBox="0 0 38 24" width="38" height="24" role="img" aria-labelledby="pi-metamask" fill="none" xmlns="http://www.w3.org/2000/svg"><title id="pi-metamask">Metamask</title><path d="M35 0H3C1.3 0 0 1.3 0 3V21C0 22.7 1.4 24 3 24H35C36.7 24 38 22.7 38 21V3C38 1.3 36.6 0 35 0Z" fill="#000" fill-opacity=".07"/><path d="M35 1C36.1 1 37 1.9 37 3V21C37 22.1 36.1 23 35 23H3C1.9 23 1 22.1 1 21V3C1 1.9 1.9 1 3 1H35Z" fill="white"/><rect x="8" y="1.5" width="21" height="21" rx="4" fill="white"/><g clip-path="url(#clip0_12919_114105)"><path d="M26.0992 18.8104L22.5802 17.7626L19.9264 19.349L18.0747 19.3482L15.4194 17.7626L11.9019 18.8104L10.832 15.1984L11.902 11.1896L10.832 7.80032L11.902 3.59961L17.3983 6.88336H20.6029L26.0992 3.59961L27.1692 7.80032L26.0992 11.1896L27.1692 15.1984L26.0992 18.8104Z" fill="#FF5C16"/><path d="M11.9023 3.59961L17.3987 6.88566L17.1802 9.14084L11.9023 3.59961ZM15.4199 15.1999L17.8383 17.0421L15.4199 17.7625V15.1999ZM17.6449 12.1542L17.1802 9.14245L14.205 11.1905L14.2034 11.1897V11.1912L14.2126 13.2993L15.4191 12.1543L17.6449 12.1542ZM26.0988 3.59961L20.6025 6.88566L20.8203 9.14084L26.0988 3.59961ZM22.5814 15.1999L20.1629 17.0421L22.5814 17.7625V15.1999ZM23.7971 11.1911V11.1896L23.7964 11.1904L20.8211 9.14245L20.3564 12.1542H22.5813L23.7885 13.2991L23.7971 11.1911Z" fill="#FF5C16"/><path d="M15.4195 17.7634L11.902 18.8112L10.832 15.2008H15.4195V17.7634ZM17.6445 12.1543L18.3164 16.5084L17.3852 14.0874L14.2115 13.3L15.4187 12.1544L17.6445 12.1543ZM22.5816 17.7634L26.0992 18.8112L27.1692 15.2007H22.5816C22.5816 15.2008 22.5816 17.7634 22.5816 17.7634ZM20.3567 12.1543L19.6849 16.5084L20.616 14.0874L23.7898 13.3L22.5819 12.1544L20.3567 12.1543Z" fill="#E34807"/><path d="M10.832 15.1978L11.902 11.189H14.203L14.2114 13.2979L17.3854 14.0853L18.3165 16.5061L17.8378 17.0392L15.4195 15.197H10.832V15.1978ZM27.1692 15.1978L26.0992 11.189H23.7981L23.7897 13.2979L20.616 14.0853L19.6847 16.5061L20.1633 17.0392L22.5818 15.197H27.1692V15.1978ZM20.6029 6.88281H17.3983L17.1807 9.13799L18.3166 16.5037H19.6849L20.8215 9.13799L20.6029 6.88281Z" fill="#FF8D5D"/><path d="M11.902 3.59961L10.832 7.80032L11.902 11.1896H14.203L17.1798 9.14096L11.902 3.59961ZM16.9795 13.0279H15.9372L15.3697 13.5842L17.3861 14.0841L16.9795 13.0271V13.0279ZM26.0992 3.59961L27.1692 7.80032L26.0992 11.1896H23.7981L20.8215 9.14096L26.0992 3.59961ZM21.0232 13.0279H22.0671L22.6346 13.5849L20.6159 14.0858L21.0232 13.0271V13.0279ZM19.9256 17.9121L20.1634 17.0414L19.6847 16.5083H18.3155L17.8369 17.0414L18.0746 17.9121" fill="#661800"/><path d="M19.9249 17.9121V19.3499H18.0742V17.9121H19.9249Z" fill="#C0C4CD"/><path d="M15.4219 17.7614L18.0779 19.3494V17.9116L17.8401 17.041L15.4219 17.7614ZM22.5834 17.7614L19.9272 19.3494V17.9116L20.165 17.041L22.5834 17.7614Z" fill="#E7EBF6"/></g><defs><clipPath id="clip0_12919_114105"><rect width="16.3394" height="15.75" fill="white" transform="translate(10.832 3.59961)"/></clipPath></defs></svg>
