<svg width="38" height="24" viewBox="0 0 38 24" role="img" aria-labelledby="pi-Rainbow" fill="none" xmlns="http://www.w3.org/2000/svg">
<title id="pi-Rainbow">Rainbow</title>
<path d="M35 0H3C1.3 0 0 1.3 0 3V21C0 22.7 1.4 24 3 24H35C36.7 24 38 22.7 38 21V3C38 1.3 36.6 0 35 0Z" fill="black" fill-opacity="0.07"/>
<path d="M35 1C36.1 1 37 1.9 37 3V21C37 22.1 36.1 23 35 23H3C1.9 23 1 22.1 1 21V3C1 1.9 1.9 1 3 1H35Z" fill="url(#paint0_linear_13107_108720)"/>
<path d="M12 8H13C18.1547 8 22.3333 12.1787 22.3333 17.3333V18.3333H24.3333C24.8856 18.3333 25.3333 17.8856 25.3333 17.3333C25.3333 10.5218 19.8115 5 13 5C12.4477 5 12 5.44772 12 6V8Z" fill="url(#paint1_radial_13107_108720)"/>
<path d="M22.667 17.334H25.3337C25.3337 17.8863 24.8859 18.334 24.3337 18.334H22.667V17.334Z" fill="url(#paint2_linear_13107_108720)"/>
<path d="M13 5L13 7.66667H12L12 6C12 5.44772 12.4477 5 13 5Z" fill="url(#paint3_linear_13107_108720)"/>
<path d="M12 7.66602H13C18.3388 7.66602 22.6667 11.9939 22.6667 17.3327V18.3327H19.6667V17.3327C19.6667 13.6508 16.6819 10.666 13 10.666H12V7.66602Z" fill="url(#paint4_radial_13107_108720)"/>
<path d="M20 17.332H22.6667V18.332H20V17.332Z" fill="url(#paint5_linear_13107_108720)"/>
<path d="M12 10.3327L12 7.66602L13 7.66602L13 10.3327H12Z" fill="url(#paint6_linear_13107_108720)"/>
<path d="M12 12.0007C12 12.5529 12.4477 13.0007 13 13.0007C15.3932 13.0007 17.3333 14.9408 17.3333 17.334C17.3333 17.8863 17.781 18.334 18.3333 18.334H20V17.334C20 13.468 16.866 10.334 13 10.334H12V12.0007Z" fill="url(#paint7_radial_13107_108720)"/>
<path d="M17.3335 17.334H20.0002V18.334H18.3335C17.7812 18.334 17.3335 17.8863 17.3335 17.334Z" fill="url(#paint8_radial_13107_108720)"/>
<path d="M13 13.0007C12.4477 13.0007 12 12.5529 12 12.0007L12 10.334L13 10.334L13 13.0007Z" fill="url(#paint9_radial_13107_108720)"/>
<defs>
<linearGradient id="paint0_linear_13107_108720" x1="19" y1="1" x2="19" y2="23" gradientUnits="userSpaceOnUse">
<stop stop-color="#174299"/>
<stop offset="1" stop-color="#001E59"/>
</linearGradient>
<radialGradient id="paint1_radial_13107_108720" cx="0" cy="0" r="1" gradientUnits="userSpaceOnUse" gradientTransform="translate(13 17.3333) rotate(-90) scale(12.3333)">
<stop offset="0.770277" stop-color="#FF4000"/>
<stop offset="1" stop-color="#8754C9"/>
</radialGradient>
<linearGradient id="paint2_linear_13107_108720" x1="22.5003" y1="17.834" x2="25.3337" y2="17.834" gradientUnits="userSpaceOnUse">
<stop stop-color="#FF4000"/>
<stop offset="1" stop-color="#8754C9"/>
</linearGradient>
<linearGradient id="paint3_linear_13107_108720" x1="12.5" y1="5" x2="12.5" y2="7.83333" gradientUnits="userSpaceOnUse">
<stop stop-color="#8754C9"/>
<stop offset="1" stop-color="#FF4000"/>
</linearGradient>
<radialGradient id="paint4_radial_13107_108720" cx="0" cy="0" r="1" gradientUnits="userSpaceOnUse" gradientTransform="translate(13 17.3327) rotate(-90) scale(9.66667)">
<stop offset="0.723929" stop-color="#FFF700"/>
<stop offset="1" stop-color="#FF9901"/>
</radialGradient>
<linearGradient id="paint5_linear_13107_108720" x1="20" y1="17.832" x2="22.6667" y2="17.832" gradientUnits="userSpaceOnUse">
<stop stop-color="#FFF700"/>
<stop offset="1" stop-color="#FF9901"/>
</linearGradient>
<linearGradient id="paint6_linear_13107_108720" x1="12.5" y1="10.3327" x2="12.5" y2="7.66602" gradientUnits="userSpaceOnUse">
<stop stop-color="#FFF700"/>
<stop offset="1" stop-color="#FF9901"/>
</linearGradient>
<radialGradient id="paint7_radial_13107_108720" cx="0" cy="0" r="1" gradientUnits="userSpaceOnUse" gradientTransform="translate(13 17.334) rotate(-90) scale(7)">
<stop offset="0.59513" stop-color="#00AAFF"/>
<stop offset="1" stop-color="#01DA40"/>
</radialGradient>
<radialGradient id="paint8_radial_13107_108720" cx="0" cy="0" r="1" gradientUnits="userSpaceOnUse" gradientTransform="translate(17.1668 17.834) scale(2.83333 7.55556)">
<stop stop-color="#00AAFF"/>
<stop offset="1" stop-color="#01DA40"/>
</radialGradient>
<radialGradient id="paint9_radial_13107_108720" cx="0" cy="0" r="1" gradientUnits="userSpaceOnUse" gradientTransform="translate(12.5 13.1673) rotate(-90) scale(2.83333 53.7284)">
<stop stop-color="#00AAFF"/>
<stop offset="1" stop-color="#01DA40"/>
</radialGradient>
</defs>
</svg>
